# xmcd CD database file
#
# Track frame offsets:
#	150
#	2676
#	9332
#	12385
#	20542
#	29780
#	36627
#	40814
#	48643
#	53092
#	60854
#	69829
#	76421
#	80293
#	95100
#	97751
#	104839
#	113333
#	120672
#	128713
#	136950
#	143852
#	158915
#	164973
#	167146
#	168246
#	172014
#	176674
#	180444
#	186303
#
# Disc length: 2541 seconds
#
# Revision: 6
# Processed by: cddbd v1.5.2PL0 Copyright (c) Steve Scherf et al.
# Submitted via: CDex 1.51
#
DISCID=9309eb1e
DTITLE=Un Noël Heureux - °°°  Je monte mon spectacle  °°°
DYEAR=2005
DGENRE=Chants de Noël
TTITLE0=Le récitant
TTITLE1=Quand on s'aime très fort
TTITLE2=Le récitant
TTITLE3=La chanson de l'horloger
TTITLE4=Le récitant
TTITLE5=La chanson du sapin
TTITLE6=Le récitant
TTITLE7=Jouets, jouets, si vous saviez
TTITLE8=Le récitant
TTITLE9=La chanson du menuisier au gros nez
TTITLE10=Le récitant
TTITLE11=La chanson des cadeaux
TTITLE12=Le récitant
TTITLE13=Noël qui vient d'arriver
TTITLE14=Le récitant   . . . . . . . . . . . . . . . . .   { FIN }
TTITLE15=Quand on s'aime très fort  (orchestre)
TTITLE16=La chanson de l'horloger  (orchestre)
TTITLE17=La chanson du sapin  (orchestre)
TTITLE18=Jouets, jouets, si vous saviez  (orchestre)
TTITLE19=La chanson du menuisier au gros nez  (orchestre)
TTITLE20=La chanson des cadeaux  (orchestre)
TTITLE21=Noël qui vient d'arriver  (orchestre)
TTITLE22=Les ambiances et les bruitages - 1 - Ambiance feu et comtoise
TTITLE23=Les ambiances et les bruitages - 2 - Ambiance rue de Noël
TTITLE24=Les ambiances et les bruitages - 3 - Pas dans la neige
TTITLE25=Les ambiances et les bruitages - 4 - Guitare de Noël  (1)
TTITLE26=Les ambiances et les bruitages - 5 - Guitare de Noël  (2)
TTITLE27=Les ambiances et les bruitages - 6 - Ambiance menuiserie
TTITLE28=Les ambiances et les bruitages - 7 - Douze coups de minuit et traineau
TTITLE29=Les ambiances et les bruitages - 8 - Ambiance violon
EXTD=YEAR: 2005
EXTT0=
EXTT1=
EXTT2=
EXTT3=
EXTT4=
EXTT5=
EXTT6=
EXTT7=
EXTT8=
EXTT9=
EXTT10=
EXTT11=
EXTT12=
EXTT13=
EXTT14=
EXTT15=
EXTT16=
EXTT17=
EXTT18=
EXTT19=
EXTT20=
EXTT21=
EXTT22=
EXTT23=
EXTT24=
EXTT25=
EXTT26=
EXTT27=
EXTT28=
EXTT29=
PLAYORDER=
